# xmcd
#
# Track frame offsets:
#	150
#	12722
#	25639
#	38557
#	49129
#	60358
#	73542
#	84176
#	96180
#	107970
#	119142
#	129446
#
# Disc length: 1912
#
# Revision: 3
# Processed by: cddbd v1.5.1PL0 Copyright (c) Steve Scherf et al.
# Submitted via: FreeRIP 1.21
# Normalized: r2:TDELIM( - )
#
DISCID=9a07760c
DTITLE=Patsy Cline and Loretta Lynn - Gospel Favorites
DYEAR=1900
DGENRE=Gospel
TTITLE0=Patsy Cline - Just A Closer Walk With Thee
TTITLE1=Patsy Cline - Life's Railway to Heaven
TTITLE2=Patsy Cline - If I Could See The World
TTITLE3=Patsy Cline - I Can See An Angel
TTITLE4=Patsy Cline - Dear God
TTITLE5=Loretta Lynn - How Great Thou Art
TTITLE6=Loretta Lynn - In The Sweet By And By
TTITLE7=Loretta Lynn - I'd Rather Have Jesus
TTITLE8=Loretta Lynn - In the Garden
TTITLE9=Loretta Lynn - He's Got The Whole World In His Hands
TTITLE10=Loretta Lynn - If I Could Hear My Mother Pray
TTITLE11=Loretta Lynn - Where They Ring Those Golden Bells
EXTD=
EXTT0=
EXTT1=
EXTT2=
EXTT3=
EXTT4=
EXTT5=
EXTT6=
EXTT7=
EXTT8=
EXTT9=
EXTT10=02:17
EXTT11=Patsy Cline - If I Could See The World
PLAYORDER=
